# xmcd
#
# Track frame offsets: 
#        150
#        18639
#        34576
#        52361
#        66126
#
# Disc length: 1098 seconds
#
# Revision: 0
# Processed by: cddbd v1.5.2PL0 Copyright (c) Steve Scherf et al.
# Submitted via: ExactAudioCopy v1.1
#
DISCID=43044805
DTITLE=Thurl Bailey - Love Shines Through
DYEAR=2015
DGENRE=R&B
TTITLE0=Love Shines Through
TTITLE1=Cat's in the Craddle
TTITLE2=Lovely Day
TTITLE3=Every Mind
TTITLE4=It's Gonna Be Alright!
EXTD=
EXTT0=
EXTT1=
EXTT2=
EXTT3=
EXTT4=
PLAYORDER=
